<?xml version="1.0" encoding="UTF-8" standalone="no"?>
<svg width="138px" height="138px" viewBox="0 0 138 138" version="1.1" xmlns="http://www.w3.org/2000/svg" xmlns:xlink="http://www.w3.org/1999/xlink" xmlns:sketch="http://www.bohemiancoding.com/sketch/ns">
    <!-- Generator: Sketch 3.2.2 (9983) - http://www.bohemiancoding.com/sketch -->
    <title>death + Oval 1</title>
    <desc>Created with Sketch.</desc>
    <defs></defs>
    <g id="1.INTRO" stroke="none" stroke-width="1" fill="none" fill-rule="evenodd" sketch:type="MSPage">
        <g id="Desktop" sketch:type="MSArtboardGroup" transform="translate(-571.000000, -246.000000)">
            <g id="death-+-Oval-1" sketch:type="MSLayerGroup" transform="translate(573.000000, 248.000000)">
                <g id="death" transform="translate(39.000000, 17.000000)" fill="#000000" sketch:type="MSShapeGroup">
                    <path d="M34.372,35.888 C38.528,35.888 40.405,32.885 40.405,28.854 C40.405,24.821 38.53,21.288 34.372,21.288 C30.217,21.288 28.109,24.556 28.109,28.586 C28.109,32.619 30.216,35.888 34.372,35.888 L34.372,35.888 Z M18.434,39.572 C19.568,38.167 21.331,37.26 23.832,37.142 L23.832,37.098 L23.832,28.84 C23.832,19.82 29.203,17.02 34.499,17.113 C39.65,17.201 44.728,19.934 44.728,28.84 L44.728,37.098 L44.696,37.098 L44.696,37.132 C49.688,37.319 51.812,40.58 51.812,44.76 L51.812,69.605 C51.812,69.605 51.812,72.882 48.131,72.882 L46.289,72.913 L46.289,100.507 L21.74,100.507 L21.74,48.902 C21.74,48.902 19.376,51.268 18.271,52.371 C15.47,55.171 12.468,55.508 9.635,52.676 C5.641,48.681 3.28,46.321 2.225,45.264 C0.198,43.236 0.141,40.758 1.949,38.948 C3.761,37.137 6.124,36.802 8.406,39.085 C9.304,39.985 9.405,40.064 13.667,44.329 L18.426,39.572 L18.434,39.572 L18.434,39.572 Z" id="Shape"></path>
                    <path d="M6.665,100.504 L6.665,2.349 C9.23,1.479 19.637,0.509 22.518,0.509 C36.764,0.509 49.269,4.029 54.354,12.39 C41.927,6.425 20.555,6.932 12.071,9.962 L12.071,100.504 L6.665,100.504 L6.665,100.504 Z" id="Shape"></path>
                </g>
                <circle id="Oval-1" stroke="#3D3D3D" stroke-width="4" sketch:type="MSShapeGroup" cx="67" cy="67" r="67"></circle>
            </g>
        </g>
    </g>
</svg>